<?xml version="1.0" encoding="UTF-8" standalone="no"?>
<!-- Created with Inkscape (http://www.inkscape.org/) -->

<svg
   xmlns:dc="http://purl.org/dc/elements/1.1/"
   xmlns:cc="http://creativecommons.org/ns#"
   xmlns:rdf="http://www.w3.org/1999/02/22-rdf-syntax-ns#"
   xmlns:svg="http://www.w3.org/2000/svg"
   xmlns="http://www.w3.org/2000/svg"
   xmlns:sodipodi="http://sodipodi.sourceforge.net/DTD/sodipodi-0.dtd"
   xmlns:inkscape="http://www.inkscape.org/namespaces/inkscape"
   width="720.3078mm"
   height="392.24609mm"
   viewBox="0 0 720.3078 392.24609"
   version="1.1"
   id="svg8"
   inkscape:version="0.92.5 (2060ec1f9f, 2020-04-08)"
   sodipodi:docname="logo.svg">
  <defs
     id="defs2">
    <inkscape:perspective
       sodipodi:type="inkscape:persp3d"
       inkscape:vp_x="0 : 148.5 : 1"
       inkscape:vp_y="0 : 999.99999 : 0"
       inkscape:vp_z="210.00001 : 148.5 : 1"
       inkscape:persp3d-origin="105.00001 : 98.999999 : 1"
       id="perspective4656" />
  </defs>
  <sodipodi:namedview
     id="base"
     pagecolor="#ffffff"
     bordercolor="#666666"
     borderopacity="1.0"
     inkscape:pageopacity="0.0"
     inkscape:pageshadow="2"
     inkscape:zoom="0.40202247"
     inkscape:cx="1462.7644"
     inkscape:cy="537.53817"
     inkscape:document-units="mm"
     inkscape:current-layer="layer1"
     showgrid="false"
     inkscape:window-width="3840"
     inkscape:window-height="2103"
     inkscape:window-x="0"
     inkscape:window-y="0"
     inkscape:window-maximized="1" />
  <metadata
     id="metadata5">
    <rdf:RDF>
      <cc:Work
         rdf:about="">
        <dc:format>image/svg+xml</dc:format>
        <dc:type
           rdf:resource="http://purl.org/dc/dcmitype/StillImage" />
        <dc:title />
      </cc:Work>
    </rdf:RDF>
  </metadata>
  <g
     inkscape:groupmode="layer"
     id="layer2"
     inkscape:label="Layer 2"
     transform="translate(259.11278,40.804576)" />
  <g
     inkscape:groupmode="layer"
     id="layer3"
     inkscape:label="Layer 3"
     transform="translate(259.11278,40.804576)" />
  <g
     inkscape:label="Layer 1"
     inkscape:groupmode="layer"
     id="layer1"
     transform="translate(259.11278,40.804576)">
    <g
       id="g947"
       transform="translate(-119.77979,-409.35731)">
      <ellipse
         inkscape:export-ydpi="45.139999"
         inkscape:export-xdpi="45.139999"
         cx="220.82091"
         cy="564.67578"
         rx="360.1539"
         ry="196.12305"
         id="path4530"
         style="opacity:1;fill:#3e73b8;fill-opacity:0.97863243;stroke:none;stroke-width:0.50270832;stroke-linecap:round;stroke-linejoin:bevel;stroke-miterlimit:4;stroke-dasharray:none;stroke-opacity:1;paint-order:normal" />
      <path
         inkscape:export-ydpi="45.139999"
         inkscape:export-xdpi="45.139999"
         sodipodi:open="true"
         d="M 449.67146,564.67578 A 228.85056,191.56911 0 0 1 220.87525,756.24488 228.85056,191.56911 0 0 1 -8.029622,564.76676 228.85056,191.56911 0 0 1 220.65788,373.10672 228.85056,191.56911 0 0 1 449.67136,564.49383"
         sodipodi:end="6.2822355"
         sodipodi:start="0"
         sodipodi:ry="191.56911"
         sodipodi:rx="228.85056"
         sodipodi:cy="564.67578"
         sodipodi:cx="220.82091"
         sodipodi:type="arc"
         id="path4536"
         style="opacity:1;fill:#ffffff;fill-opacity:0.99572646;stroke:none;stroke-width:0.50270832;stroke-linecap:round;stroke-linejoin:bevel;stroke-miterlimit:4;stroke-dasharray:none;stroke-opacity:1;paint-order:normal" />
      <path
         inkscape:export-ydpi="45.139999"
         inkscape:export-xdpi="45.139999"
         transform="scale(-1,1)"
         sodipodi:open="true"
         d="M -3.4415588,564.67578 A 217.37935,183.53926 0 0 1 -220.76929,748.21504 217.37935,183.53926 0 0 1 -438.20023,564.76294 217.37935,183.53926 0 0 1 -220.97576,381.13657 217.37935,183.53926 0 0 1 -3.4416569,564.50145"
         sodipodi:end="6.2822355"
         sodipodi:start="0"
         sodipodi:ry="183.53926"
         sodipodi:rx="217.37935"
         sodipodi:cy="564.67578"
         sodipodi:cx="-220.82091"
         sodipodi:type="arc"
         id="path4536-3"
         style="opacity:1;fill:#386fb6;fill-opacity:1;stroke:none;stroke-width:0.50270832;stroke-linecap:round;stroke-linejoin:bevel;stroke-miterlimit:4;stroke-dasharray:none;stroke-opacity:1;paint-order:normal" />
      <path
         inkscape:export-ydpi="45.139999"
         inkscape:export-xdpi="45.139999"
         d="M 394.22729,564.67578 A 173.40639,158.11145 0 0 1 220.86177,722.78723 173.40639,158.11145 0 0 1 47.41454,564.75029 173.40639,158.11145 0 0 1 220.69833,406.56437 173.40639,158.11145 0 0 1 394.22722,564.52676"
         sodipodi:open="true"
         sodipodi:end="6.2822428"
         sodipodi:start="0"
         sodipodi:ry="158.11145"
         sodipodi:rx="173.40639"
         sodipodi:cy="564.67578"
         sodipodi:cx="220.82091"
         sodipodi:type="arc"
         id="path4559"
         style="opacity:1;fill:#ffffff;fill-opacity:1;stroke:none;stroke-width:0.50270832;stroke-linecap:round;stroke-linejoin:bevel;stroke-miterlimit:4;stroke-dasharray:none;stroke-opacity:1;paint-order:normal" />
      <g
         inkscape:export-ydpi="45.139999"
         inkscape:export-xdpi="45.139999"
         transform="translate(-2.1407624)"
         id="g4644">
        <path
           style="fill:none;stroke:#000000;stroke-width:8;stroke-linecap:butt;stroke-linejoin:miter;stroke-miterlimit:4;stroke-dasharray:none;stroke-opacity:1"
           d="M 251.55424,424.4817 158.27352,694.86059"
           id="path4618"
           inkscape:connector-curvature="0" />
        <path
           sodipodi:nodetypes="cc"
           style="fill:none;stroke:#3d72b8;stroke-width:8;stroke-linecap:butt;stroke-linejoin:miter;stroke-miterlimit:4;stroke-dasharray:none;stroke-opacity:0.98039216"
           d="M 270.40378,428.68663 176.32132,700.26817"
           id="path4618-5"
           inkscape:connector-curvature="0" />
        <path
           style="fill:none;stroke:#000000;stroke-width:8;stroke-linecap:butt;stroke-linejoin:miter;stroke-miterlimit:4;stroke-dasharray:none;stroke-opacity:1"
           d="m 287.64982,434.75609 -93.28071,270.3789"
           id="path4618-3"
           inkscape:connector-curvature="0" />
      </g>
      <path
         inkscape:export-ydpi="45.139999"
         inkscape:export-xdpi="45.139999"
         d="M 379.31473,564.67578 A 158.49382,145.87549 0 0 1 220.85825,710.55127 158.49382,145.87549 0 0 1 62.327105,564.74453 158.49382,145.87549 0 0 1 220.70887,418.80033 158.49382,145.87549 0 0 1 379.31466,564.53829"
         sodipodi:open="true"
         sodipodi:end="6.2822428"
         sodipodi:start="0"
         sodipodi:ry="145.87549"
         sodipodi:rx="158.49382"
         sodipodi:cy="564.67578"
         sodipodi:cx="220.82091"
         sodipodi:type="arc"
         id="path4559-6"
         style="opacity:1;fill:none;fill-opacity:1;stroke:#000000;stroke-width:8;stroke-linecap:round;stroke-linejoin:bevel;stroke-miterlimit:4;stroke-dasharray:none;stroke-opacity:0.99346397;paint-order:normal" />
      <g
         inkscape:export-ydpi="45.139999"
         inkscape:export-xdpi="45.139999"
         transform="translate(131.10038,417.88276)"
         id="g4822">
        <rect
           style="opacity:1;fill:#ffffff;fill-opacity:1;stroke:none;stroke-width:8;stroke-linecap:round;stroke-linejoin:bevel;stroke-miterlimit:4;stroke-dasharray:none;stroke-opacity:1;paint-order:normal"
           id="rect4743"
           width="272.7829"
           height="105.23306"
           x="-46.670925"
           y="94.176483" />
        <g
           id="g4801">
          <path
             sodipodi:nodetypes="ccc"
             inkscape:connector-curvature="0"
             id="path4663"
             d="m 31.746282,105.08931 c -0.340807,-6.741976 12.232974,-10.719537 12.345775,0 z"
             style="fill:#000000;fill-opacity:1;stroke:#000000;stroke-width:0.26458332px;stroke-linecap:butt;stroke-linejoin:miter;stroke-opacity:1" />
          <path
             sodipodi:nodetypes="ccccccccccccccccccccccc"
             inkscape:connector-curvature="0"
             id="path4665"
             d="m 89.139446,145.61726 c 3.215462,-24.88159 29.521254,-18.70836 25.499904,4.33572 l 68.71013,7.12821 c 0.32029,-24.28869 28.41268,-24.34517 26.16129,2.20461 l 6.83427,0.95533 3.60085,-2.42507 0.36743,-3.60085 -2.42506,-1.61671 v -5.95243 l 2.71901,-0.58789 -0.22046,-2.35158 c -2.74804,-2.42856 -2.10735,-3.25364 -9.03888,-8.01006 -5.62536,-2.86255 -10.7487,-4.82102 -19.32701,-6.31986 l -16.16709,-3.23341 c -5.87026,-6.5273 -13.1529,-12.74756 -23.51577,-18.29821 -12.93374,-2.96358 -26.00195,-5.20102 -39.90331,-2.93947 -11.29718,2.65274 -18.093094,5.72747 -23.14833,8.96539 l -13.521565,0.5144 c -2.652249,0.66474 -0.831398,7.86709 -1.175787,11.90486 l -3.380391,3.74783 0.293947,9.47979 6.393346,3.74782 z"
             style="opacity:1;fill:#090000;fill-opacity:1;stroke:#000000;stroke-width:0.26458332px;stroke-linecap:butt;stroke-linejoin:miter;stroke-opacity:1" />
          <path
             sodipodi:nodetypes="ccccc"
             inkscape:connector-curvature="0"
             id="path4667"
             d="m 107.21719,111.88683 c -0.55584,2.25105 -2.00778,4.18206 0,7.34868 l 28.36589,2.86598 c 1.20948,-3.81671 0.75638,-8.83215 0,-13.59505 -10.05341,-1.04138 -19.86264,-1.19758 -28.36589,3.38039 z"
             style="fill:#ffffff;fill-opacity:1;stroke:none;stroke-width:0.26458332px;stroke-linecap:butt;stroke-linejoin:miter;stroke-opacity:1" />
          <path
             sodipodi:nodetypes="cccc"
             inkscape:connector-curvature="0"
             id="path4669"
             d="m 140.35972,109.16782 c 0.87258,4.37401 1.18035,8.8789 0.88184,13.44809 l 29.17425,4.18874 c -7.51967,-11.2411 -23.52977,-17.16792 -30.05609,-17.63683 z"
             style="fill:#ffffff;fill-opacity:1;stroke:none;stroke-width:0.26458332px;stroke-linecap:butt;stroke-linejoin:miter;stroke-opacity:1" />
          <path
             d="m 113.31658,145.43353 a 10.986271,11.647652 0 0 1 -10.98368,11.64765 10.986271,11.647652 0 0 1 -10.988863,-11.64216 10.986271,11.647652 0 0 1 10.978503,-11.65314 10.986271,11.647652 0 0 1 10.99403,11.63667"
             sodipodi:open="true"
             sodipodi:end="6.2822428"
             sodipodi:start="0"
             sodipodi:ry="11.647652"
             sodipodi:rx="10.986271"
             sodipodi:cy="145.43353"
             sodipodi:cx="102.33031"
             sodipodi:type="arc"
             id="path4673"
             style="opacity:1;fill:#000000;fill-opacity:1;stroke:none;stroke-width:8;stroke-linecap:round;stroke-linejoin:bevel;stroke-miterlimit:4;stroke-dasharray:none;stroke-opacity:1;paint-order:normal" />
          <path
             d="m 207.4164,154.2887 a 10.986271,11.647652 0 0 1 -10.98368,11.64765 10.986271,11.647652 0 0 1 -10.98886,-11.64216 10.986271,11.647652 0 0 1 10.9785,-11.65314 10.986271,11.647652 0 0 1 10.99404,11.63667"
             sodipodi:open="true"
             sodipodi:end="6.2822428"
             sodipodi:start="0"
             sodipodi:ry="11.647652"
             sodipodi:rx="10.986271"
             sodipodi:cy="154.2887"
             sodipodi:cx="196.43013"
             sodipodi:type="arc"
             id="path4673-5"
             style="opacity:1;fill:#000000;fill-opacity:1;stroke:none;stroke-width:8;stroke-linecap:round;stroke-linejoin:bevel;stroke-miterlimit:4;stroke-dasharray:none;stroke-opacity:1;paint-order:normal" />
          <path
             d="m 108.98086,145.43353 a 6.6505513,6.6505513 0 0 1 -6.64899,6.65055 6.6505513,6.6505513 0 0 1 -6.652114,-6.64741 6.6505513,6.6505513 0 0 1 6.645854,-6.65369 6.6505513,6.6505513 0 0 1 6.65525,6.64428"
             sodipodi:open="true"
             sodipodi:end="6.2822428"
             sodipodi:start="0"
             sodipodi:ry="6.6505513"
             sodipodi:rx="6.6505513"
             sodipodi:cy="145.43353"
             sodipodi:cx="102.33031"
             sodipodi:type="arc"
             id="path4673-6"
             style="opacity:1;fill:#ffffff;fill-opacity:1;stroke:none;stroke-width:8;stroke-linecap:round;stroke-linejoin:bevel;stroke-miterlimit:4;stroke-dasharray:none;stroke-opacity:1;paint-order:normal" />
          <path
             d="m 203.08068,154.2887 a 6.6505513,6.6505513 0 0 1 -6.64898,6.65055 6.6505513,6.6505513 0 0 1 -6.65212,-6.64742 6.6505513,6.6505513 0 0 1 6.64585,-6.65368 6.6505513,6.6505513 0 0 1 6.65525,6.64428"
             sodipodi:open="true"
             sodipodi:end="6.2822428"
             sodipodi:start="0"
             sodipodi:ry="6.6505513"
             sodipodi:rx="6.6505513"
             sodipodi:cy="154.2887"
             sodipodi:cx="196.43013"
             sodipodi:type="arc"
             id="path4673-6-2"
             style="opacity:1;fill:#ffffff;fill-opacity:1;stroke:none;stroke-width:8;stroke-linecap:round;stroke-linejoin:bevel;stroke-miterlimit:4;stroke-dasharray:none;stroke-opacity:1;paint-order:normal" />
          <path
             d="m 147.52468,183.79364 a 10.986271,11.647652 0 0 1 -10.98368,11.64765 10.986271,11.647652 0 0 1 -10.98886,-11.64216 10.986271,11.647652 0 0 1 10.9785,-11.65314 10.986271,11.647652 0 0 1 10.99403,11.63667"
             sodipodi:open="true"
             sodipodi:end="6.2822428"
             sodipodi:start="0"
             sodipodi:ry="11.647652"
             sodipodi:rx="10.986271"
             sodipodi:cy="183.79364"
             sodipodi:cx="136.53841"
             sodipodi:type="arc"
             id="path4673-9"
             style="opacity:1;fill:#000000;fill-opacity:1;stroke:none;stroke-width:8;stroke-linecap:round;stroke-linejoin:bevel;stroke-miterlimit:4;stroke-dasharray:none;stroke-opacity:1;paint-order:normal" />
          <path
             d="m 143.18896,183.79364 a 6.6505513,6.6505513 0 0 1 -6.64899,6.65055 6.6505513,6.6505513 0 0 1 -6.65211,-6.64742 6.6505513,6.6505513 0 0 1 6.64585,-6.65368 6.6505513,6.6505513 0 0 1 6.65524,6.64428"
             sodipodi:open="true"
             sodipodi:end="6.2822428"
             sodipodi:start="0"
             sodipodi:ry="6.6505513"
             sodipodi:rx="6.6505513"
             sodipodi:cy="183.79364"
             sodipodi:cx="136.53841"
             sodipodi:type="arc"
             id="path4673-6-1"
             style="opacity:1;fill:#ffffff;fill-opacity:1;stroke:none;stroke-width:8;stroke-linecap:round;stroke-linejoin:bevel;stroke-miterlimit:4;stroke-dasharray:none;stroke-opacity:1;paint-order:normal" />
          <path
             d="M 6.2096376,183.79364 A 10.986271,11.647652 0 0 1 -4.7740446,195.44129 10.986271,11.647652 0 0 1 -15.762903,183.79913 10.986271,11.647652 0 0 1 -4.7843992,172.14599 10.986271,11.647652 0 0 1 6.2096328,183.78266"
             sodipodi:open="true"
             sodipodi:end="6.2822428"
             sodipodi:start="0"
             sodipodi:ry="11.647652"
             sodipodi:rx="10.986271"
             sodipodi:cy="183.79364"
             sodipodi:cx="-4.7766333"
             sodipodi:type="arc"
             id="path4673-2"
             style="opacity:1;fill:#000000;fill-opacity:1;stroke:none;stroke-width:8;stroke-linecap:round;stroke-linejoin:bevel;stroke-miterlimit:4;stroke-dasharray:none;stroke-opacity:1;paint-order:normal" />
          <path
             d="m 1.8739181,183.79364 a 6.6505513,6.6505513 0 0 1 -6.6489843,6.65055 6.6505513,6.6505513 0 0 1 -6.6521178,-6.64742 6.6505513,6.6505513 0 0 1 6.6458496,-6.65368 6.6505513,6.6505513 0 0 1 6.6552495,6.64428"
             sodipodi:open="true"
             sodipodi:end="6.2822428"
             sodipodi:start="0"
             sodipodi:ry="6.6505513"
             sodipodi:rx="6.6505513"
             sodipodi:cy="183.79364"
             sodipodi:cx="-4.7766333"
             sodipodi:type="arc"
             id="path4673-6-7"
             style="opacity:1;fill:#ffffff;fill-opacity:1;stroke:none;stroke-width:8;stroke-linecap:round;stroke-linejoin:bevel;stroke-miterlimit:4;stroke-dasharray:none;stroke-opacity:1;paint-order:normal" />
          <path
             sodipodi:nodetypes="ccccccccccccccc"
             inkscape:connector-curvature="0"
             id="path4650"
             d="m -30.189085,168.02315 0.141732,9.77957 c 0.427328,4.16236 6.595818,4.8301 9.921296,7.22837 2.523346,-24.40055 28.0771288,-24.08509 30.0473527,-0.8504 L 121.8902,183.33029 c 0.7481,-25.24292 28.68416,-22.63312 28.91349,-1.13386 l 70.72467,-0.14173 -0.28347,-6.09451 -70.58293,-16.72447 -81.779823,1.55906 -9.354364,-51.02381 H 29.622154 c -8.706137,-0.2332 -21.4488962,20.12606 -32.1733443,30.18909 -9.3157637,3.08744 -17.9820207,5.74565 -24.2011797,11.62283 -3.97903,4.43215 -2.675379,10.79717 -3.436715,16.44026 z"
             style="opacity:1;fill:#00000a;fill-opacity:1;stroke:#000000;stroke-width:0.26458332px;stroke-linecap:butt;stroke-linejoin:miter;stroke-opacity:1" />
          <path
             sodipodi:nodetypes="ccc"
             inkscape:transform-center-y="-1.2662036"
             inkscape:transform-center-x="1.537533"
             inkscape:connector-curvature="0"
             id="path4652"
             d="m -25.776288,161.6971 c -0.620012,-8.24031 4.078402,-10.51754 11.395833,-9.8583 -0.0028,5.19247 -3.131633,9.20376 -11.395833,9.8583 z"
             style="fill:#ffffff;fill-opacity:1;stroke:none;stroke-width:0.26458332px;stroke-linecap:butt;stroke-linejoin:miter;stroke-opacity:1" />
          <path
             sodipodi:nodetypes="cccccccccccccc"
             inkscape:connector-curvature="0"
             id="path4658"
             d="m 7.1968744,135.3951 v 1.66281 l 2.7540384,-0.052 v 3.27367 l -2.7540384,0.62355 v 1.403 l 2.7540384,-0.46766 v 4.209 l 25.5398082,-3.74134 c 2.669577,-0.4854 2.678322,-2.32139 2.702076,-3.37759 l 0.207854,-18.23901 c 0.175156,-2.46747 -1.585902,-3.27188 -3.273669,-3.11778 l -10.75634,0.25982 z"
             style="fill:#ffffff;fill-opacity:1;stroke:none;stroke-width:0.26458332px;stroke-linecap:butt;stroke-linejoin:miter;stroke-opacity:1" />
          <path
             sodipodi:nodetypes="ccccccccccccc"
             inkscape:connector-curvature="0"
             id="path4660"
             d="m 14.782706,173.14546 v 3.68937 h 29.930681 v 8.36604 l 4.780597,-0.20786 v -8.15818 h 68.383296 v -3.68937 H 49.493984 v -64.33019 l -4.780597,0.10393 v 64.22626 z"
             style="opacity:1;fill:#ffffff;fill-opacity:1;stroke:none;stroke-width:0.26458332px;stroke-linecap:butt;stroke-linejoin:miter;stroke-opacity:1" />
        </g>
      </g>
      <text
         inkscape:export-ydpi="45.139999"
         inkscape:export-xdpi="45.139999"
         id="text4834"
         y="669.83105"
         x="267.85922"
         style="font-style:normal;font-variant:normal;font-weight:normal;font-stretch:normal;font-size:10.58333302px;line-height:1.25;font-family:Arimo;-inkscape-font-specification:Arimo;letter-spacing:0px;word-spacing:0px;fill:#3d72b8;fill-opacity:0.98039216;stroke:none;stroke-width:0.26458332"
         xml:space="preserve"><tspan
           style="font-style:normal;font-variant:normal;font-weight:normal;font-stretch:normal;font-size:52.91666794px;font-family:Arimo;-inkscape-font-specification:Arimo;fill:#3d72b8;fill-opacity:0.98039216;stroke-width:0.26458332"
           y="669.83105"
           x="267.85922"
           id="tspan4832"
           sodipodi:role="line">S</tspan></text>
      <rect
         inkscape:export-ydpi="45.139999"
         inkscape:export-xdpi="45.139999"
         transform="matrix(0.99549199,0.09484579,-0.07855004,0.99691018,0,0)"
         y="537.80145"
         x="295.36078"
         height="2.2032433"
         width="58.359615"
         id="rect4745"
         style="opacity:1;fill:#ffffff;fill-opacity:1;stroke:none;stroke-width:21.80665398;stroke-linecap:round;stroke-linejoin:bevel;stroke-miterlimit:4;stroke-dasharray:none;stroke-opacity:1;paint-order:normal" />
      <text
         inkscape:export-ydpi="45.139999"
         inkscape:export-xdpi="45.139999"
         id="text4830"
         y="501.02048"
         x="136.23305"
         style="font-style:normal;font-variant:normal;font-weight:normal;font-stretch:normal;font-size:10.58333302px;line-height:1.25;font-family:Arimo;-inkscape-font-specification:Arimo;letter-spacing:0px;word-spacing:0px;fill:#3d72b8;fill-opacity:0.98039216;stroke:none;stroke-width:0.26458332"
         xml:space="preserve"><tspan
           style="font-style:normal;font-variant:normal;font-weight:normal;font-stretch:normal;font-size:56.44444275px;line-height:1.25;font-family:Arimo;-inkscape-font-specification:Arimo;fill:#3d72b8;fill-opacity:0.98039216;stroke-width:0.26458332"
           y="501.02048"
           x="136.23305"
           id="tspan4828"
           sodipodi:role="line">J</tspan></text>
    </g>
  </g>
</svg>
